<svg width="182" height="280" viewBox="0 0 182 280" fill="none" xmlns="http://www.w3.org/2000/svg">
<path fill-rule="evenodd" clip-rule="evenodd" d="M32 0L150 0L182 32V248L150 280H32L0 248V32L32 0Z" fill="#8CC084"/>
<path fill-rule="evenodd" clip-rule="evenodd" d="M37.1868 8L144.813 8L174 38.1714V241.829L144.813 272H37.1868L8 241.829V38.1714L37.1868 8Z" fill="#B3D5AC"/>
<path d="M65.4531 70V53.0312H76.8438V55.9375H68.9688V60.0625H76.2578V62.9688H68.9688V67.0938H76.8672V70H65.4531ZM78.9062 66.4375C78.9062 63.6016 81.2031 62.6641 83.6406 62.5234C84.5547 62.4648 86.2656 62.3828 86.8047 62.3594V61.3281C86.7812 60.2734 86.0547 59.6406 84.7656 59.6406C83.5938 59.6406 82.8438 60.1797 82.6562 61.0469H79.3516C79.5625 58.8438 81.4844 57.1094 84.8594 57.1094C87.625 57.1094 90.25 58.3516 90.25 61.4219V70H86.9688V68.2422H86.875C86.2422 69.4141 85.0469 70.2344 83.1484 70.2344C80.7109 70.2344 78.9062 68.9688 78.9062 66.4375ZM82.2344 66.3438C82.2344 67.3281 83.0312 67.8438 84.1328 67.8438C85.7031 67.8438 86.8281 66.7891 86.8047 65.4531V64.5156C86.2773 64.5391 84.8008 64.6211 84.2031 64.6797C83.0078 64.7969 82.2344 65.3594 82.2344 66.3438ZM100.164 61.0469C100.023 60.1562 99.2266 59.5703 98.0781 59.5703C96.9531 59.5703 96.0859 60.1094 96.1094 60.8828C96.0859 61.4453 96.5547 61.8906 97.75 62.1484L100.023 62.6172C102.484 63.1328 103.68 64.2344 103.703 66.0625C103.68 68.5703 101.43 70.2578 98.0547 70.2578C94.6094 70.2578 92.5938 68.7109 92.3125 66.2266H95.8047C95.9688 67.2344 96.7891 67.75 98.0547 67.75C99.3203 67.75 100.164 67.2344 100.164 66.4141C100.164 65.7578 99.625 65.3594 98.4297 65.1016L96.3203 64.6797C93.9062 64.2109 92.6406 62.9453 92.6641 61.0703C92.6406 58.6328 94.75 57.1094 98.0312 57.1094C101.242 57.1094 103.234 58.6328 103.422 61.0469H100.164ZM107.875 74.7812C107.195 74.7812 106.562 74.7578 106.117 74.7109V72.0156C106.562 72.0391 107.078 72.0625 107.523 72.0625C108.203 72.0625 108.766 71.9922 109.188 70.8906L109.398 70.3516L104.828 57.2734H108.461L111.133 66.6484H111.273L113.969 57.2734H117.648L112.68 71.4062C111.953 73.4453 110.57 74.7812 107.875 74.7812Z" fill="#5C7C57"/>
</svg>
