<svg width="318" height="400" viewBox="0 0 318 400" fill="none" xmlns="http://www.w3.org/2000/svg">
<g filter="url(#filter0_d_120_1946)">
<rect x="1" width="309" height="392" rx="24" fill="#B3D5AC"/>
<g filter="url(#filter1_biiii_120_1946)">
<rect width="309" height="392" rx="24" fill="#B3D5AC" fill-opacity="0.109"/>
</g>
<path d="M91.6328 319V276.578H120.109V283.844H100.422V294.156H118.645V301.422H100.422V311.734H120.168V319H91.6328ZM125.266 310.094C125.266 303.004 131.008 300.66 137.102 300.309C139.387 300.162 143.664 299.957 145.012 299.898V297.32C144.953 294.684 143.137 293.102 139.914 293.102C136.984 293.102 135.109 294.449 134.641 296.617H126.379C126.906 291.109 131.711 286.773 140.148 286.773C147.062 286.773 153.625 289.879 153.625 297.555V319H145.422V314.605H145.188C143.605 317.535 140.617 319.586 135.871 319.586C129.777 319.586 125.266 316.422 125.266 310.094ZM133.586 309.859C133.586 312.32 135.578 313.609 138.332 313.609C142.258 313.609 145.07 310.973 145.012 307.633V305.289C143.693 305.348 140.002 305.553 138.508 305.699C135.52 305.992 133.586 307.398 133.586 309.859ZM178.41 296.617C178.059 294.391 176.066 292.926 173.195 292.926C170.383 292.926 168.215 294.273 168.273 296.207C168.215 297.613 169.387 298.727 172.375 299.371L178.059 300.543C184.211 301.832 187.199 304.586 187.258 309.156C187.199 315.426 181.574 319.645 173.137 319.645C164.523 319.645 159.484 315.777 158.781 309.566H167.512C167.922 312.086 169.973 313.375 173.137 313.375C176.301 313.375 178.41 312.086 178.41 310.035C178.41 308.395 177.062 307.398 174.074 306.754L168.801 305.699C162.766 304.527 159.602 301.363 159.66 296.676C159.602 290.582 164.875 286.773 173.078 286.773C181.105 286.773 186.086 290.582 186.555 296.617H178.41ZM197.688 330.953C195.988 330.953 194.406 330.895 193.293 330.777V324.039C194.406 324.098 195.695 324.156 196.809 324.156C198.508 324.156 199.914 323.98 200.969 321.227L201.496 319.879L190.07 287.184H199.152L205.832 310.621H206.184L212.922 287.184H222.121L209.699 322.516C207.883 327.613 204.426 330.953 197.688 330.953Z" fill="#5C7C57"/>
<circle cx="155" cy="160" r="88" fill="#FFF58B"/>
<g filter="url(#filter2_dii_120_1946)">
<circle cx="155" cy="160" r="88" fill="url(#paint0_linear_120_1946)"/>
</g>
<g filter="url(#filter3_f_120_1946)">
<path d="M111 165C111 174.389 103.389 182 94 182C84.6112 182 77 174.389 77 165C77 155.611 84.6112 148 94 148C103.389 148 111 155.611 111 165Z" fill="#FF0066" fill-opacity="0.3"/>
</g>
<g filter="url(#filter4_f_120_1946)">
<path d="M232 163C232 172.389 224.389 180 215 180C205.611 180 198 172.389 198 163C198 153.611 205.611 146 215 146C224.389 146 232 153.611 232 163Z" fill="#FF0066" fill-opacity="0.3"/>
</g>
<g filter="url(#filter5_df_120_1946)">
<path d="M201.75 126L179 140.104L205 153" stroke="#424242" stroke-width="6" stroke-linecap="round"/>
</g>
<g filter="url(#filter6_df_120_1946)">
<path d="M107.419 126L130 141.014L105 154" stroke="#424242" stroke-width="6" stroke-linecap="round"/>
</g>
<g filter="url(#filter7_df_120_1946)">
<path d="M101 169H210C210 196.586 182.63 219 155.74 219C127.41 219 102.441 197.161 101 169Z" fill="url(#paint1_linear_120_1946)"/>
</g>
</g>
<defs>
<filter id="filter0_d_120_1946" x="0" y="0" width="318" height="400" filterUnits="userSpaceOnUse" color-interpolation-filters="sRGB">
<feFlood flood-opacity="0" result="BackgroundImageFix"/>
<feColorMatrix in="SourceAlpha" type="matrix" values="0 0 0 0 0 0 0 0 0 0 0 0 0 0 0 0 0 0 127 0" result="hardAlpha"/>
<feOffset dx="4" dy="4"/>
<feGaussianBlur stdDeviation="2"/>
<feComposite in2="hardAlpha" operator="out"/>
<feColorMatrix type="matrix" values="0 0 0 0 0 0 0 0 0 0 0 0 0 0 0 0 0 0 0.25 0"/>
<feBlend mode="normal" in2="BackgroundImageFix" result="effect1_dropShadow_120_1946"/>
<feBlend mode="normal" in="SourceGraphic" in2="effect1_dropShadow_120_1946" result="shape"/>
</filter>
<filter id="filter1_biiii_120_1946" x="-71.502" y="-71.502" width="452.004" height="535.004" filterUnits="userSpaceOnUse" color-interpolation-filters="sRGB">
<feFlood flood-opacity="0" result="BackgroundImageFix"/>
<feGaussianBlur in="BackgroundImageFix" stdDeviation="35.751"/>
<feComposite in2="SourceAlpha" operator="in" result="effect1_backgroundBlur_120_1946"/>
<feBlend mode="normal" in="SourceGraphic" in2="effect1_backgroundBlur_120_1946" result="shape"/>
<feColorMatrix in="SourceAlpha" type="matrix" values="0 0 0 0 0 0 0 0 0 0 0 0 0 0 0 0 0 0 127 0" result="hardAlpha"/>
<feOffset dx="-9.34667" dy="9.34667"/>
<feGaussianBlur stdDeviation="4.67333"/>
<feComposite in2="hardAlpha" operator="arithmetic" k2="-1" k3="1"/>
<feColorMatrix type="matrix" values="0 0 0 0 0.561569 0 0 0 0 0.668235 0 0 0 0 0.539608 0 0 0 0.418 0"/>
<feBlend mode="normal" in2="shape" result="effect2_innerShadow_120_1946"/>
<feColorMatrix in="SourceAlpha" type="matrix" values="0 0 0 0 0 0 0 0 0 0 0 0 0 0 0 0 0 0 127 0" result="hardAlpha"/>
<feOffset dx="-4.67333" dy="4.67333"/>
<feGaussianBlur stdDeviation="2.33667"/>
<feComposite in2="hardAlpha" operator="arithmetic" k2="-1" k3="1"/>
<feColorMatrix type="matrix" values="0 0 0 0 1 0 0 0 0 1 0 0 0 0 1 0 0 0 0.418 0"/>
<feBlend mode="normal" in2="effect2_innerShadow_120_1946" result="effect3_innerShadow_120_1946"/>
<feColorMatrix in="SourceAlpha" type="matrix" values="0 0 0 0 0 0 0 0 0 0 0 0 0 0 0 0 0 0 127 0" result="hardAlpha"/>
<feOffset dx="9.34667" dy="-9.34667"/>
<feGaussianBlur stdDeviation="4.67333"/>
<feComposite in2="hardAlpha" operator="arithmetic" k2="-1" k3="1"/>
<feColorMatrix type="matrix" values="0 0 0 0 1 0 0 0 0 1 0 0 0 0 1 0 0 0 0.418 0"/>
<feBlend mode="normal" in2="effect3_innerShadow_120_1946" result="effect4_innerShadow_120_1946"/>
<feColorMatrix in="SourceAlpha" type="matrix" values="0 0 0 0 0 0 0 0 0 0 0 0 0 0 0 0 0 0 127 0" result="hardAlpha"/>
<feOffset dx="4.67333" dy="-4.67333"/>
<feGaussianBlur stdDeviation="2.33667"/>
<feComposite in2="hardAlpha" operator="arithmetic" k2="-1" k3="1"/>
<feColorMatrix type="matrix" values="0 0 0 0 0.561569 0 0 0 0 0.668235 0 0 0 0 0.539608 0 0 0 0.418 0"/>
<feBlend mode="normal" in2="effect4_innerShadow_120_1946" result="effect5_innerShadow_120_1946"/>
</filter>
<filter id="filter2_dii_120_1946" x="20.0667" y="48.5333" width="269.867" height="269.867" filterUnits="userSpaceOnUse" color-interpolation-filters="sRGB">
<feFlood flood-opacity="0" result="BackgroundImageFix"/>
<feColorMatrix in="SourceAlpha" type="matrix" values="0 0 0 0 0 0 0 0 0 0 0 0 0 0 0 0 0 0 127 0" result="hardAlpha"/>
<feOffset dy="23.4667"/>
<feGaussianBlur stdDeviation="23.4667"/>
<feColorMatrix type="matrix" values="0 0 0 0 0.2 0 0 0 0 0.192431 0 0 0 0 0.109167 0 0 0 0.25 0"/>
<feBlend mode="normal" in2="BackgroundImageFix" result="effect1_dropShadow_120_1946"/>
<feBlend mode="normal" in="SourceGraphic" in2="effect1_dropShadow_120_1946" result="shape"/>
<feColorMatrix in="SourceAlpha" type="matrix" values="0 0 0 0 0 0 0 0 0 0 0 0 0 0 0 0 0 0 127 0" result="hardAlpha"/>
<feOffset dy="7.82222"/>
<feGaussianBlur stdDeviation="3.91111"/>
<feComposite in2="hardAlpha" operator="arithmetic" k2="-1" k3="1"/>
<feColorMatrix type="matrix" values="0 0 0 0 1 0 0 0 0 1 0 0 0 0 0.633167 0 0 0 1 0"/>
<feBlend mode="normal" in2="shape" result="effect2_innerShadow_120_1946"/>
<feColorMatrix in="SourceAlpha" type="matrix" values="0 0 0 0 0 0 0 0 0 0 0 0 0 0 0 0 0 0 127 0" result="hardAlpha"/>
<feOffset dy="-7.82222"/>
<feGaussianBlur stdDeviation="3.91111"/>
<feComposite in2="hardAlpha" operator="arithmetic" k2="-1" k3="1"/>
<feColorMatrix type="matrix" values="0 0 0 0 0.8 0 0 0 0 0.769722 0 0 0 0 0.436667 0 0 0 1 0"/>
<feBlend mode="normal" in2="effect2_innerShadow_120_1946" result="effect3_innerShadow_120_1946"/>
</filter>
<filter id="filter3_f_120_1946" x="57" y="128" width="74" height="74" filterUnits="userSpaceOnUse" color-interpolation-filters="sRGB">
<feFlood flood-opacity="0" result="BackgroundImageFix"/>
<feBlend mode="normal" in="SourceGraphic" in2="BackgroundImageFix" result="shape"/>
<feGaussianBlur stdDeviation="10" result="effect1_foregroundBlur_120_1946"/>
</filter>
<filter id="filter4_f_120_1946" x="178" y="126" width="74" height="74" filterUnits="userSpaceOnUse" color-interpolation-filters="sRGB">
<feFlood flood-opacity="0" result="BackgroundImageFix"/>
<feBlend mode="normal" in="SourceGraphic" in2="BackgroundImageFix" result="shape"/>
<feGaussianBlur stdDeviation="10" result="effect1_foregroundBlur_120_1946"/>
</filter>
<filter id="filter5_df_120_1946" x="168.836" y="122.5" width="43.165" height="41.5012" filterUnits="userSpaceOnUse" color-interpolation-filters="sRGB">
<feFlood flood-opacity="0" result="BackgroundImageFix"/>
<feColorMatrix in="SourceAlpha" type="matrix" values="0 0 0 0 0 0 0 0 0 0 0 0 0 0 0 0 0 0 127 0" result="hardAlpha"/>
<feOffset dy="4"/>
<feGaussianBlur stdDeviation="2"/>
<feComposite in2="hardAlpha" operator="out"/>
<feColorMatrix type="matrix" values="0 0 0 0 0 0 0 0 0 0 0 0 0 0 0 0 0 0 0.25 0"/>
<feBlend mode="normal" in2="BackgroundImageFix" result="effect1_dropShadow_120_1946"/>
<feBlend mode="normal" in="SourceGraphic" in2="effect1_dropShadow_120_1946" result="shape"/>
<feGaussianBlur stdDeviation="0.25" result="effect2_foregroundBlur_120_1946"/>
</filter>
<filter id="filter6_df_120_1946" x="97.999" y="122.5" width="41.8975" height="42.501" filterUnits="userSpaceOnUse" color-interpolation-filters="sRGB">
<feFlood flood-opacity="0" result="BackgroundImageFix"/>
<feColorMatrix in="SourceAlpha" type="matrix" values="0 0 0 0 0 0 0 0 0 0 0 0 0 0 0 0 0 0 127 0" result="hardAlpha"/>
<feOffset dy="4"/>
<feGaussianBlur stdDeviation="2"/>
<feComposite in2="hardAlpha" operator="out"/>
<feColorMatrix type="matrix" values="0 0 0 0 0 0 0 0 0 0 0 0 0 0 0 0 0 0 0.25 0"/>
<feBlend mode="normal" in2="BackgroundImageFix" result="effect1_dropShadow_120_1946"/>
<feBlend mode="normal" in="SourceGraphic" in2="effect1_dropShadow_120_1946" result="shape"/>
<feGaussianBlur stdDeviation="0.25" result="effect2_foregroundBlur_120_1946"/>
</filter>
<filter id="filter7_df_120_1946" x="97" y="168.5" width="117" height="58.5" filterUnits="userSpaceOnUse" color-interpolation-filters="sRGB">
<feFlood flood-opacity="0" result="BackgroundImageFix"/>
<feColorMatrix in="SourceAlpha" type="matrix" values="0 0 0 0 0 0 0 0 0 0 0 0 0 0 0 0 0 0 127 0" result="hardAlpha"/>
<feOffset dy="4"/>
<feGaussianBlur stdDeviation="2"/>
<feComposite in2="hardAlpha" operator="out"/>
<feColorMatrix type="matrix" values="0 0 0 0 0 0 0 0 0 0 0 0 0 0 0 0 0 0 0.25 0"/>
<feBlend mode="normal" in2="BackgroundImageFix" result="effect1_dropShadow_120_1946"/>
<feBlend mode="normal" in="SourceGraphic" in2="effect1_dropShadow_120_1946" result="shape"/>
<feGaussianBlur stdDeviation="0.25" result="effect2_foregroundBlur_120_1946"/>
</filter>
<linearGradient id="paint0_linear_120_1946" x1="155" y1="72" x2="155" y2="248" gradientUnits="userSpaceOnUse">
<stop stop-color="#FFFF9C"/>
<stop offset="1" stop-color="#D6CE75"/>
</linearGradient>
<linearGradient id="paint1_linear_120_1946" x1="155.5" y1="169" x2="155.5" y2="219" gradientUnits="userSpaceOnUse">
<stop stop-color="#582929"/>
<stop offset="1" stop-color="#D26262"/>
</linearGradient>
</defs>
</svg>
