<svg width="318" height="400" viewBox="0 0 318 400" fill="none" xmlns="http://www.w3.org/2000/svg"><g filter="url(#filter0_d_120_1948)"><rect x="1" width="309" height="392" rx="24" fill="#E2ADFE"/><g filter="url(#filter1_biiii_120_1948)"><rect width="309" height="392" rx="24" fill="#B3D5AC" fill-opacity=".109"/></g><path d="M90.7227 319v-42.422h8.789v17.578H117.91v-17.578h8.848V319h-8.848v-17.578H99.5117V319h-8.789Zm41.4843-8.906c0-7.09 5.742-9.434 11.836-9.785 2.285-.147 6.562-.352 7.91-.411v-2.578c-.058-2.636-1.875-4.218-5.098-4.218-2.929 0-4.804 1.347-5.273 3.515h-8.262c.528-5.508 5.332-9.844 13.77-9.844 6.914 0 13.476 3.106 13.476 10.782V319h-8.203v-4.395h-.234c-1.582 2.93-4.57 4.981-9.317 4.981-6.093 0-10.605-3.164-10.605-9.492Zm8.32-.235c0 2.461 1.993 3.75 4.746 3.75 3.926 0 6.739-2.636 6.68-5.976v-2.344c-1.318.059-5.01.264-6.504.41-2.988.293-4.922 1.699-4.922 4.16ZM167.188 319v-31.816h8.378v5.507h.352c1.172-3.925 4.102-5.976 7.676-5.976.879 0 1.992.117 2.754.293v7.734c-.821-.234-2.461-.469-3.692-.469-3.926 0-6.797 2.754-6.797 6.622V319h-8.671Zm34.101.527c-7.266 0-12.949-5.8-12.949-16.406 0-10.898 5.918-16.348 12.949-16.348 5.332 0 7.852 3.165 9.023 5.743h.293v-15.938h8.672V319h-8.554v-5.098h-.411c-1.23 2.637-3.867 5.625-9.023 5.625Zm2.695-6.914c4.336 0 6.797-3.808 6.797-9.551 0-5.742-2.461-9.374-6.797-9.374-4.394 0-6.738 3.808-6.738 9.374 0 5.626 2.344 9.551 6.738 9.551Z" fill="#007CFF"/><circle cx="155" cy="160" r="88" fill="#FFF58B"/><g filter="url(#filter2_dii_120_1948)"><circle cx="155" cy="160" r="88" fill="url(#paint0_linear_120_1948)"/></g><g filter="url(#filter3_f_120_1948)"><path d="M111 165c0 9.389-7.611 17-17 17-9.3888 0-17-7.611-17-17s7.6112-17 17-17c9.389 0 17 7.611 17 17Z" fill="#F06" fill-opacity=".3"/></g><g filter="url(#filter4_f_120_1948)"><path d="M232 163c0 9.389-7.611 17-17 17s-17-7.611-17-17 7.611-17 17-17 17 7.611 17 17Z" fill="#F06" fill-opacity=".3"/></g></g><g filter="url(#filter5_df_120_1948)"><path stroke="#424242" stroke-width="8" stroke-linecap="round" d="m135.925 197.52 46.002-.852"/></g><g filter="url(#filter6_df_120_1948)"><ellipse cx="187" cy="149.093" rx="6" ry="8.5" fill="#424242"/></g><g filter="url(#filter7_df_120_1948)"><circle cx="120" cy="150.593" r="7" fill="#424242"/></g><g filter="url(#filter8_df_120_1948)"><path d="M105 139.593c6-7.2 13.167-5.667 16-4 5.5 3.235 12 3.5 14-2" stroke="#424242" stroke-width="6" stroke-linecap="round"/></g><g filter="url(#filter9_df_120_1948)"><path d="M172 130.593c7.2-14 19.897-18.306 25-17.5 9.5 1.5 8 9 9.5 12.5" stroke="#424242" stroke-width="6" stroke-linecap="round"/></g><defs><filter id="filter0_d_120_1948" x="0" y="0" width="318" height="400" filterUnits="userSpaceOnUse" color-interpolation-filters="sRGB"><feFlood flood-opacity="0" result="BackgroundImageFix"/><feColorMatrix in="SourceAlpha" values="0 0 0 0 0 0 0 0 0 0 0 0 0 0 0 0 0 0 127 0" result="hardAlpha"/><feOffset dx="4" dy="4"/><feGaussianBlur stdDeviation="2"/><feComposite in2="hardAlpha" operator="out"/><feColorMatrix values="0 0 0 0 0 0 0 0 0 0 0 0 0 0 0 0 0 0 0.25 0"/><feBlend in2="BackgroundImageFix" result="effect1_dropShadow_120_1948"/><feBlend in="SourceGraphic" in2="effect1_dropShadow_120_1948" result="shape"/></filter><filter id="filter1_biiii_120_1948" x="-71.502" y="-71.502" width="452.004" height="535.004" filterUnits="userSpaceOnUse" color-interpolation-filters="sRGB"><feFlood flood-opacity="0" result="BackgroundImageFix"/><feGaussianBlur in="BackgroundImageFix" stdDeviation="35.751"/><feComposite in2="SourceAlpha" operator="in" result="effect1_backgroundBlur_120_1948"/><feBlend in="SourceGraphic" in2="effect1_backgroundBlur_120_1948" result="shape"/><feColorMatrix in="SourceAlpha" values="0 0 0 0 0 0 0 0 0 0 0 0 0 0 0 0 0 0 127 0" result="hardAlpha"/><feOffset dx="-9.34667" dy="9.34667"/><feGaussianBlur stdDeviation="4.67333"/><feComposite in2="hardAlpha" operator="arithmetic" k2="-1" k3="1"/><feColorMatrix values="0 0 0 0 0.561569 0 0 0 0 0.668235 0 0 0 0 0.539608 0 0 0 0.418 0"/><feBlend in2="shape" result="effect2_innerShadow_120_1948"/><feColorMatrix in="SourceAlpha" values="0 0 0 0 0 0 0 0 0 0 0 0 0 0 0 0 0 0 127 0" result="hardAlpha"/><feOffset dx="-4.67333" dy="4.67333"/><feGaussianBlur stdDeviation="2.33667"/><feComposite in2="hardAlpha" operator="arithmetic" k2="-1" k3="1"/><feColorMatrix values="0 0 0 0 1 0 0 0 0 1 0 0 0 0 1 0 0 0 0.418 0"/><feBlend in2="effect2_innerShadow_120_1948" result="effect3_innerShadow_120_1948"/><feColorMatrix in="SourceAlpha" values="0 0 0 0 0 0 0 0 0 0 0 0 0 0 0 0 0 0 127 0" result="hardAlpha"/><feOffset dx="9.34667" dy="-9.34667"/><feGaussianBlur stdDeviation="4.67333"/><feComposite in2="hardAlpha" operator="arithmetic" k2="-1" k3="1"/><feColorMatrix values="0 0 0 0 1 0 0 0 0 1 0 0 0 0 1 0 0 0 0.418 0"/><feBlend in2="effect3_innerShadow_120_1948" result="effect4_innerShadow_120_1948"/><feColorMatrix in="SourceAlpha" values="0 0 0 0 0 0 0 0 0 0 0 0 0 0 0 0 0 0 127 0" result="hardAlpha"/><feOffset dx="4.67333" dy="-4.67333"/><feGaussianBlur stdDeviation="2.33667"/><feComposite in2="hardAlpha" operator="arithmetic" k2="-1" k3="1"/><feColorMatrix values="0 0 0 0 0.561569 0 0 0 0 0.668235 0 0 0 0 0.539608 0 0 0 0.418 0"/><feBlend in2="effect4_innerShadow_120_1948" result="effect5_innerShadow_120_1948"/></filter><filter id="filter2_dii_120_1948" x="20.0667" y="48.5333" width="269.867" height="269.867" filterUnits="userSpaceOnUse" color-interpolation-filters="sRGB"><feFlood flood-opacity="0" result="BackgroundImageFix"/><feColorMatrix in="SourceAlpha" values="0 0 0 0 0 0 0 0 0 0 0 0 0 0 0 0 0 0 127 0" result="hardAlpha"/><feOffset dy="23.4667"/><feGaussianBlur stdDeviation="23.4667"/><feColorMatrix values="0 0 0 0 0.2 0 0 0 0 0.192431 0 0 0 0 0.109167 0 0 0 0.25 0"/><feBlend in2="BackgroundImageFix" result="effect1_dropShadow_120_1948"/><feBlend in="SourceGraphic" in2="effect1_dropShadow_120_1948" result="shape"/><feColorMatrix in="SourceAlpha" values="0 0 0 0 0 0 0 0 0 0 0 0 0 0 0 0 0 0 127 0" result="hardAlpha"/><feOffset dy="7.82222"/><feGaussianBlur stdDeviation="3.91111"/><feComposite in2="hardAlpha" operator="arithmetic" k2="-1" k3="1"/><feColorMatrix values="0 0 0 0 1 0 0 0 0 1 0 0 0 0 0.633167 0 0 0 1 0"/><feBlend in2="shape" result="effect2_innerShadow_120_1948"/><feColorMatrix in="SourceAlpha" values="0 0 0 0 0 0 0 0 0 0 0 0 0 0 0 0 0 0 127 0" result="hardAlpha"/><feOffset dy="-7.82222"/><feGaussianBlur stdDeviation="3.91111"/><feComposite in2="hardAlpha" operator="arithmetic" k2="-1" k3="1"/><feColorMatrix values="0 0 0 0 0.8 0 0 0 0 0.769722 0 0 0 0 0.436667 0 0 0 1 0"/><feBlend in2="effect2_innerShadow_120_1948" result="effect3_innerShadow_120_1948"/></filter><filter id="filter3_f_120_1948" x="57" y="128" width="74" height="74" filterUnits="userSpaceOnUse" color-interpolation-filters="sRGB"><feFlood flood-opacity="0" result="BackgroundImageFix"/><feBlend in="SourceGraphic" in2="BackgroundImageFix" result="shape"/><feGaussianBlur stdDeviation="10" result="effect1_foregroundBlur_120_1948"/></filter><filter id="filter4_f_120_1948" x="178" y="126" width="74" height="74" filterUnits="userSpaceOnUse" color-interpolation-filters="sRGB"><feFlood flood-opacity="0" result="BackgroundImageFix"/><feBlend in="SourceGraphic" in2="BackgroundImageFix" result="shape"/><feGaussianBlur stdDeviation="10" result="effect1_foregroundBlur_120_1948"/></filter><filter id="filter5_df_120_1948" x="127.925" y="192.168" width="62.002" height="17.3521" filterUnits="userSpaceOnUse" color-interpolation-filters="sRGB"><feFlood flood-opacity="0" result="BackgroundImageFix"/><feColorMatrix in="SourceAlpha" values="0 0 0 0 0 0 0 0 0 0 0 0 0 0 0 0 0 0 127 0" result="hardAlpha"/><feOffset dy="4"/><feGaussianBlur stdDeviation="2"/><feComposite in2="hardAlpha" operator="out"/><feColorMatrix values="0 0 0 0 0 0 0 0 0 0 0 0 0 0 0 0 0 0 0.25 0"/><feBlend in2="BackgroundImageFix" result="effect1_dropShadow_120_1948"/><feBlend in="SourceGraphic" in2="effect1_dropShadow_120_1948" result="shape"/><feGaussianBlur stdDeviation=".25" result="effect2_foregroundBlur_120_1948"/></filter><filter id="filter6_df_120_1948" x="177" y="140.093" width="20" height="25.5" filterUnits="userSpaceOnUse" color-interpolation-filters="sRGB"><feFlood flood-opacity="0" result="BackgroundImageFix"/><feColorMatrix in="SourceAlpha" values="0 0 0 0 0 0 0 0 0 0 0 0 0 0 0 0 0 0 127 0" result="hardAlpha"/><feOffset dy="4"/><feGaussianBlur stdDeviation="2"/><feComposite in2="hardAlpha" operator="out"/><feColorMatrix values="0 0 0 0 0 0 0 0 0 0 0 0 0 0 0 0 0 0 0.25 0"/><feBlend in2="BackgroundImageFix" result="effect1_dropShadow_120_1948"/><feBlend in="SourceGraphic" in2="effect1_dropShadow_120_1948" result="shape"/><feGaussianBlur stdDeviation=".25" result="effect2_foregroundBlur_120_1948"/></filter><filter id="filter7_df_120_1948" x="109" y="143.093" width="22" height="22.5" filterUnits="userSpaceOnUse" color-interpolation-filters="sRGB"><feFlood flood-opacity="0" result="BackgroundImageFix"/><feColorMatrix in="SourceAlpha" values="0 0 0 0 0 0 0 0 0 0 0 0 0 0 0 0 0 0 127 0" result="hardAlpha"/><feOffset dy="4"/><feGaussianBlur stdDeviation="2"/><feComposite in2="hardAlpha" operator="out"/><feColorMatrix values="0 0 0 0 0 0 0 0 0 0 0 0 0 0 0 0 0 0 0.25 0"/><feBlend in2="BackgroundImageFix" result="effect1_dropShadow_120_1948"/><feBlend in="SourceGraphic" in2="effect1_dropShadow_120_1948" result="shape"/><feGaussianBlur stdDeviation=".25" result="effect2_foregroundBlur_120_1948"/></filter><filter id="filter8_df_120_1948" x="98" y="130.092" width="44.001" height="20.5007" filterUnits="userSpaceOnUse" color-interpolation-filters="sRGB"><feFlood flood-opacity="0" result="BackgroundImageFix"/><feColorMatrix in="SourceAlpha" values="0 0 0 0 0 0 0 0 0 0 0 0 0 0 0 0 0 0 127 0" result="hardAlpha"/><feOffset dy="4"/><feGaussianBlur stdDeviation="2"/><feComposite in2="hardAlpha" operator="out"/><feColorMatrix values="0 0 0 0 0 0 0 0 0 0 0 0 0 0 0 0 0 0 0.25 0"/><feBlend in2="BackgroundImageFix" result="effect1_dropShadow_120_1948"/><feBlend in="SourceGraphic" in2="effect1_dropShadow_120_1948" result="shape"/><feGaussianBlur stdDeviation=".25" result="effect2_foregroundBlur_120_1948"/></filter><filter id="filter9_df_120_1948" x="164.999" y="109.5" width="48.502" height="32.0938" filterUnits="userSpaceOnUse" color-interpolation-filters="sRGB"><feFlood flood-opacity="0" result="BackgroundImageFix"/><feColorMatrix in="SourceAlpha" values="0 0 0 0 0 0 0 0 0 0 0 0 0 0 0 0 0 0 127 0" result="hardAlpha"/><feOffset dy="4"/><feGaussianBlur stdDeviation="2"/><feComposite in2="hardAlpha" operator="out"/><feColorMatrix values="0 0 0 0 0 0 0 0 0 0 0 0 0 0 0 0 0 0 0.25 0"/><feBlend in2="BackgroundImageFix" result="effect1_dropShadow_120_1948"/><feBlend in="SourceGraphic" in2="effect1_dropShadow_120_1948" result="shape"/><feGaussianBlur stdDeviation=".25" result="effect2_foregroundBlur_120_1948"/></filter><linearGradient id="paint0_linear_120_1948" x1="155" y1="72" x2="155" y2="248" gradientUnits="userSpaceOnUse"><stop stop-color="#FFFF9C"/><stop offset="1" stop-color="#D6CE75"/></linearGradient></defs></svg>