<svg width="182" height="280" viewBox="0 0 182 280" fill="none" xmlns="http://www.w3.org/2000/svg">
<path fill-rule="evenodd" clip-rule="evenodd" d="M115 0C115 13.2548 104.255 24 91 24C77.7452 24 67 13.2548 67 0H0V280H67C67 266.745 77.7452 256 91 256C104.255 256 115 266.745 115 280H182V0H115Z" fill="#E2ADFE"/>
<g filter="url(#filter0_f_487_908)">
<rect x="12.5" y="29.5" width="157" height="222" stroke="#007CFF"/>
</g>
<g filter="url(#filter1_f_487_908)">
<path d="M17.0489 6.92705C17.3483 6.00574 18.6517 6.00574 18.9511 6.92705L20.4697 11.6008C20.6035 12.0128 20.9875 12.2918 21.4207 12.2918H26.335C27.3037 12.2918 27.7065 13.5314 26.9228 14.1008L22.947 16.9894C22.5966 17.244 22.4499 17.6954 22.5838 18.1074L24.1024 22.7812C24.4017 23.7025 23.3472 24.4686 22.5635 23.8992L18.5878 21.0106C18.2373 20.756 17.7627 20.756 17.4122 21.0106L13.4365 23.8992C12.6528 24.4686 11.5983 23.7025 11.8976 22.7812L13.4162 18.1074C13.5501 17.6954 13.4034 17.244 13.053 16.9894L9.07722 14.1008C8.29351 13.5314 8.69628 12.2918 9.66501 12.2918H14.5793C15.0125 12.2918 15.3965 12.0128 15.5303 11.6008L17.0489 6.92705Z" fill="#007CFF"/>
</g>
<g filter="url(#filter2_f_487_908)">
<path d="M47.0489 6.92705C47.3483 6.00574 48.6517 6.00574 48.9511 6.92705L50.4697 11.6008C50.6035 12.0128 50.9875 12.2918 51.4207 12.2918H56.335C57.3037 12.2918 57.7065 13.5314 56.9228 14.1008L52.947 16.9894C52.5966 17.244 52.4499 17.6954 52.5838 18.1074L54.1024 22.7812C54.4017 23.7025 53.3472 24.4686 52.5635 23.8992L48.5878 21.0106C48.2373 20.756 47.7627 20.756 47.4122 21.0106L43.4365 23.8992C42.6528 24.4686 41.5983 23.7025 41.8976 22.7812L43.4162 18.1074C43.5501 17.6954 43.4034 17.244 43.053 16.9894L39.0772 14.1008C38.2935 13.5314 38.6963 12.2918 39.665 12.2918H44.5793C45.0125 12.2918 45.3965 12.0128 45.5303 11.6008L47.0489 6.92705Z" fill="#007CFF"/>
</g>
<g filter="url(#filter3_f_487_908)">
<path d="M133.049 6.92705C133.348 6.00574 134.652 6.00574 134.951 6.92705L136.47 11.6008C136.604 12.0128 136.987 12.2918 137.421 12.2918H142.335C143.304 12.2918 143.706 13.5314 142.923 14.1008L138.947 16.9894C138.597 17.244 138.45 17.6954 138.584 18.1074L140.102 22.7812C140.402 23.7025 139.347 24.4686 138.564 23.8992L134.588 21.0106C134.237 20.756 133.763 20.756 133.412 21.0106L129.436 23.8992C128.653 24.4686 127.598 23.7025 127.898 22.7812L129.416 18.1074C129.55 17.6954 129.403 17.244 129.053 16.9894L125.077 14.1008C124.294 13.5314 124.696 12.2918 125.665 12.2918H130.579C131.013 12.2918 131.396 12.0128 131.53 11.6008L133.049 6.92705Z" fill="#007CFF"/>
</g>
<g filter="url(#filter4_f_487_908)">
<path d="M163.049 6.92705C163.348 6.00574 164.652 6.00574 164.951 6.92705L166.47 11.6008C166.604 12.0128 166.987 12.2918 167.421 12.2918H172.335C173.304 12.2918 173.706 13.5314 172.923 14.1008L168.947 16.9894C168.597 17.244 168.45 17.6954 168.584 18.1074L170.102 22.7812C170.402 23.7025 169.347 24.4686 168.564 23.8992L164.588 21.0106C164.237 20.756 163.763 20.756 163.412 21.0106L159.436 23.8992C158.653 24.4686 157.598 23.7025 157.898 22.7812L159.416 18.1074C159.55 17.6954 159.403 17.244 159.053 16.9894L155.077 14.1008C154.294 13.5314 154.696 12.2918 155.665 12.2918H160.579C161.013 12.2918 161.396 12.0128 161.53 11.6008L163.049 6.92705Z" fill="#007CFF"/>
</g>
<g filter="url(#filter5_f_487_908)">
<path d="M17.0489 256.927C17.3483 256.006 18.6517 256.006 18.9511 256.927L20.4697 261.601C20.6035 262.013 20.9875 262.292 21.4207 262.292H26.335C27.3037 262.292 27.7065 263.531 26.9228 264.101L22.947 266.989C22.5966 267.244 22.4499 267.695 22.5838 268.107L24.1024 272.781C24.4017 273.702 23.3472 274.469 22.5635 273.899L18.5878 271.011C18.2373 270.756 17.7627 270.756 17.4122 271.011L13.4365 273.899C12.6528 274.469 11.5983 273.702 11.8976 272.781L13.4162 268.107C13.5501 267.695 13.4034 267.244 13.053 266.989L9.07722 264.101C8.29351 263.531 8.69628 262.292 9.66501 262.292H14.5793C15.0125 262.292 15.3965 262.013 15.5303 261.601L17.0489 256.927Z" fill="#007CFF"/>
</g>
<g filter="url(#filter6_f_487_908)">
<path d="M47.0489 256.927C47.3483 256.006 48.6517 256.006 48.9511 256.927L50.4697 261.601C50.6035 262.013 50.9875 262.292 51.4207 262.292H56.335C57.3037 262.292 57.7065 263.531 56.9228 264.101L52.947 266.989C52.5966 267.244 52.4499 267.695 52.5838 268.107L54.1024 272.781C54.4017 273.702 53.3472 274.469 52.5635 273.899L48.5878 271.011C48.2373 270.756 47.7627 270.756 47.4122 271.011L43.4365 273.899C42.6528 274.469 41.5983 273.702 41.8976 272.781L43.4162 268.107C43.5501 267.695 43.4034 267.244 43.053 266.989L39.0772 264.101C38.2935 263.531 38.6963 262.292 39.665 262.292H44.5793C45.0125 262.292 45.3965 262.013 45.5303 261.601L47.0489 256.927Z" fill="#007CFF"/>
</g>
<g filter="url(#filter7_f_487_908)">
<path d="M133.049 256.927C133.348 256.006 134.652 256.006 134.951 256.927L136.47 261.601C136.604 262.013 136.987 262.292 137.421 262.292H142.335C143.304 262.292 143.706 263.531 142.923 264.101L138.947 266.989C138.597 267.244 138.45 267.695 138.584 268.107L140.102 272.781C140.402 273.702 139.347 274.469 138.564 273.899L134.588 271.011C134.237 270.756 133.763 270.756 133.412 271.011L129.436 273.899C128.653 274.469 127.598 273.702 127.898 272.781L129.416 268.107C129.55 267.695 129.403 267.244 129.053 266.989L125.077 264.101C124.294 263.531 124.696 262.292 125.665 262.292H130.579C131.013 262.292 131.396 262.013 131.53 261.601L133.049 256.927Z" fill="#007CFF"/>
</g>
<g filter="url(#filter8_f_487_908)">
<path d="M163.049 256.927C163.348 256.006 164.652 256.006 164.951 256.927L166.47 261.601C166.604 262.013 166.987 262.292 167.421 262.292H172.335C173.304 262.292 173.706 263.531 172.923 264.101L168.947 266.989C168.597 267.244 168.45 267.695 168.584 268.107L170.102 272.781C170.402 273.702 169.347 274.469 168.564 273.899L164.588 271.011C164.237 270.756 163.763 270.756 163.412 271.011L159.436 273.899C158.653 274.469 157.598 273.702 157.898 272.781L159.416 268.107C159.55 267.695 159.403 267.244 159.053 266.989L155.077 264.101C154.294 263.531 154.696 262.292 155.665 262.292H160.579C161.013 262.292 161.396 262.013 161.53 261.601L163.049 256.927Z" fill="#007CFF"/>
</g>
<path d="M65.7891 70V53.0312H69.3047V60.0625H76.6641V53.0312H80.2031V70H76.6641V62.9688H69.3047V70H65.7891ZM82.3828 66.4375C82.3828 63.6016 84.6797 62.6641 87.1172 62.5234C88.0312 62.4648 89.7422 62.3828 90.2812 62.3594V61.3281C90.2578 60.2734 89.5312 59.6406 88.2422 59.6406C87.0703 59.6406 86.3203 60.1797 86.1328 61.0469H82.8281C83.0391 58.8438 84.9609 57.1094 88.3359 57.1094C91.1016 57.1094 93.7266 58.3516 93.7266 61.4219V70H90.4453V68.2422H90.3516C89.7188 69.4141 88.5234 70.2344 86.625 70.2344C84.1875 70.2344 82.3828 68.9688 82.3828 66.4375ZM85.7109 66.3438C85.7109 67.3281 86.5078 67.8438 87.6094 67.8438C89.1797 67.8438 90.3047 66.7891 90.2812 65.4531V64.5156C89.7539 64.5391 88.2773 64.6211 87.6797 64.6797C86.4844 64.7969 85.7109 65.3594 85.7109 66.3438ZM96.375 70V57.2734H99.7266V59.4766H99.8672C100.336 57.9062 101.508 57.0859 102.938 57.0859C103.289 57.0859 103.734 57.1328 104.039 57.2031V60.2969C103.711 60.2031 103.055 60.1094 102.562 60.1094C100.992 60.1094 99.8438 61.2109 99.8438 62.7578V70H96.375ZM110.016 70.2109C107.109 70.2109 104.836 67.8906 104.836 63.6484C104.836 59.2891 107.203 57.1094 110.016 57.1094C112.148 57.1094 113.156 58.375 113.625 59.4062H113.742V53.0312H117.211V70H113.789V67.9609H113.625C113.133 69.0156 112.078 70.2109 110.016 70.2109ZM111.094 67.4453C112.828 67.4453 113.812 65.9219 113.812 63.625C113.812 61.3281 112.828 59.875 111.094 59.875C109.336 59.875 108.398 61.3984 108.398 63.625C108.398 65.875 109.336 67.4453 111.094 67.4453Z" fill="#007CFF"/>
<defs>
<filter id="filter0_f_487_908" x="11" y="28" width="160" height="225" filterUnits="userSpaceOnUse" color-interpolation-filters="sRGB">
<feFlood flood-opacity="0" result="BackgroundImageFix"/>
<feBlend mode="normal" in="SourceGraphic" in2="BackgroundImageFix" result="shape"/>
<feGaussianBlur stdDeviation="0.5" result="effect1_foregroundBlur_487_908"/>
</filter>
<filter id="filter1_f_487_908" x="7.66309" y="5.23608" width="20.6738" height="19.8586" filterUnits="userSpaceOnUse" color-interpolation-filters="sRGB">
<feFlood flood-opacity="0" result="BackgroundImageFix"/>
<feBlend mode="normal" in="SourceGraphic" in2="BackgroundImageFix" result="shape"/>
<feGaussianBlur stdDeviation="0.5" result="effect1_foregroundBlur_487_908"/>
</filter>
<filter id="filter2_f_487_908" x="37.6631" y="5.23608" width="20.6738" height="19.8586" filterUnits="userSpaceOnUse" color-interpolation-filters="sRGB">
<feFlood flood-opacity="0" result="BackgroundImageFix"/>
<feBlend mode="normal" in="SourceGraphic" in2="BackgroundImageFix" result="shape"/>
<feGaussianBlur stdDeviation="0.5" result="effect1_foregroundBlur_487_908"/>
</filter>
<filter id="filter3_f_487_908" x="123.663" y="5.23608" width="20.6738" height="19.8586" filterUnits="userSpaceOnUse" color-interpolation-filters="sRGB">
<feFlood flood-opacity="0" result="BackgroundImageFix"/>
<feBlend mode="normal" in="SourceGraphic" in2="BackgroundImageFix" result="shape"/>
<feGaussianBlur stdDeviation="0.5" result="effect1_foregroundBlur_487_908"/>
</filter>
<filter id="filter4_f_487_908" x="153.663" y="5.23608" width="20.6738" height="19.8586" filterUnits="userSpaceOnUse" color-interpolation-filters="sRGB">
<feFlood flood-opacity="0" result="BackgroundImageFix"/>
<feBlend mode="normal" in="SourceGraphic" in2="BackgroundImageFix" result="shape"/>
<feGaussianBlur stdDeviation="0.5" result="effect1_foregroundBlur_487_908"/>
</filter>
<filter id="filter5_f_487_908" x="7.66309" y="255.236" width="20.6738" height="19.8586" filterUnits="userSpaceOnUse" color-interpolation-filters="sRGB">
<feFlood flood-opacity="0" result="BackgroundImageFix"/>
<feBlend mode="normal" in="SourceGraphic" in2="BackgroundImageFix" result="shape"/>
<feGaussianBlur stdDeviation="0.5" result="effect1_foregroundBlur_487_908"/>
</filter>
<filter id="filter6_f_487_908" x="37.6631" y="255.236" width="20.6738" height="19.8586" filterUnits="userSpaceOnUse" color-interpolation-filters="sRGB">
<feFlood flood-opacity="0" result="BackgroundImageFix"/>
<feBlend mode="normal" in="SourceGraphic" in2="BackgroundImageFix" result="shape"/>
<feGaussianBlur stdDeviation="0.5" result="effect1_foregroundBlur_487_908"/>
</filter>
<filter id="filter7_f_487_908" x="123.663" y="255.236" width="20.6738" height="19.8586" filterUnits="userSpaceOnUse" color-interpolation-filters="sRGB">
<feFlood flood-opacity="0" result="BackgroundImageFix"/>
<feBlend mode="normal" in="SourceGraphic" in2="BackgroundImageFix" result="shape"/>
<feGaussianBlur stdDeviation="0.5" result="effect1_foregroundBlur_487_908"/>
</filter>
<filter id="filter8_f_487_908" x="153.663" y="255.236" width="20.6738" height="19.8586" filterUnits="userSpaceOnUse" color-interpolation-filters="sRGB">
<feFlood flood-opacity="0" result="BackgroundImageFix"/>
<feBlend mode="normal" in="SourceGraphic" in2="BackgroundImageFix" result="shape"/>
<feGaussianBlur stdDeviation="0.5" result="effect1_foregroundBlur_487_908"/>
</filter>
</defs>
</svg>
