<svg width="36" height="34" viewBox="0 0 36 34" fill="none" xmlns="http://www.w3.org/2000/svg">
<path d="M16.0428 27.4164C16.0428 27.4164 16.0427 27.4164 16.0427 27.4164C13.2222 27.1739 10.6078 26.4137 8.35952 25.2653C8.3595 25.2653 8.35947 25.2653 8.35944 25.2653C3.57906 22.8235 0.5 18.6603 0.5 14C0.5 6.65382 8.2108 0.5 18 0.5C27.7892 0.5 35.5 6.65382 35.5 14C35.5 21.3462 27.7892 27.5 18 27.5C17.3383 27.5 16.6852 27.4716 16.0428 27.4164ZM8.46319 26.4302C10.2948 27.2945 12.3317 27.9164 14.5011 28.2414L6.79054 32.9336L8.46319 26.4302Z" fill="#181600" stroke="#181600"/>
</svg>
