<svg width="600" height="114" viewBox="0 0 600 114" fill="none" xmlns="http://www.w3.org/2000/svg">
<path d="M555.707 62.4902V101.365H534.582V10.8652H554.957V45.8652H555.707C558.832 37.6152 565.957 32.6152 576.082 32.6152C590.332 32.6152 599.707 42.6152 599.707 58.1152V101.365H578.582V62.1152C578.707 54.4902 574.582 49.8652 567.457 49.8652C560.457 49.8652 555.707 54.6152 555.707 62.4902Z" fill="#787878"/>
<path d="M492.457 102.615C471.082 102.615 458.332 88.3652 458.332 67.6152C458.332 46.8652 471.207 32.6152 492.457 32.6152C511.082 32.6152 523.207 43.3652 523.707 59.8652H504.082C503.082 52.9902 499.082 48.6152 492.707 48.6152C484.957 48.6152 479.832 55.2402 479.832 67.3652C479.832 79.6152 484.832 86.2402 492.707 86.2402C498.707 86.2402 503.207 82.3652 504.082 75.1152H523.707C523.082 91.6152 511.332 102.615 492.457 102.615Z" fill="#787878"/>
<path d="M450.832 33.4902V48.9902H438.457V80.1152C438.457 84.3652 440.582 85.6152 444.207 85.7402C445.957 85.8652 449.332 85.6152 451.707 85.4902V101.615C449.707 101.865 446.207 102.365 441.207 102.365C426.332 102.365 417.332 96.2402 417.457 82.4902V48.9902H408.332V33.4902H417.457V17.2402H438.457V33.4902H450.832Z" fill="#787878"/>
<path d="M337.582 82.4902C337.582 67.4902 349.207 62.1152 362.707 61.2402C367.582 60.9277 376.082 60.6152 378.957 60.4902V54.9902C378.957 50.2402 375.457 47.6152 369.707 47.6152C364.082 47.6152 360.582 49.9902 359.707 54.4902H340.082C340.957 42.4902 351.207 32.6152 370.207 32.6152C386.957 32.6152 400.082 40.6152 400.082 55.2402V101.365H380.207V91.8652H379.707C375.957 98.7402 369.457 102.615 359.957 102.615C346.957 102.615 337.582 95.9902 337.582 82.4902ZM357.582 81.6152C357.582 86.2402 361.207 88.6152 366.332 88.6152C373.457 88.6152 379.207 83.9902 379.082 77.2402V72.8652C376.52 72.9902 369.332 73.3027 366.207 73.6152C360.957 74.2402 357.582 77.1152 357.582 81.6152Z" fill="#787878"/>
<path d="M306.957 43.4902C305.707 34.2402 299.082 28.3652 288.957 28.3652C275.582 28.3652 267.457 38.4902 267.457 56.1152C267.457 74.3652 275.832 83.8652 288.832 83.8652C298.582 83.8652 305.332 78.6152 306.957 69.7402L328.457 69.8652C326.707 85.9902 312.957 102.615 288.457 102.615C263.957 102.615 245.707 85.8652 245.707 56.1152C245.707 26.2402 264.332 9.61523 288.457 9.61523C310.207 9.61523 326.207 21.8652 328.457 43.4902H306.957Z" fill="#787878"/>
<path fill-rule="evenodd" clip-rule="evenodd" d="M212.082 33.4902V101.365H233.207V33.4902H212.082Z" fill="#787878"/>
<path d="M123.457 28.2402V10.8652H199.582V28.2402H172.082V101.365H150.957V28.2402H123.457Z" fill="#787878"/>
<rect x="210.457" y="2.36523" width="24" height="24" rx="6" fill="#C04CFD"/>
<rect x="25.4561" y="82.0244" width="36" height="36" rx="6" transform="rotate(-135 25.4561 82.0244)" fill="#C04CFD"/>
<rect x="56.5684" y="50.9119" width="36" height="36" rx="6" transform="rotate(-135 56.5684 50.9119)" fill="#787878"/>
<rect x="56.5684" y="113.137" width="36" height="36" rx="6" transform="rotate(-135 56.5684 113.137)" fill="#787878"/>
<rect x="87.6816" y="82.0244" width="36" height="36" rx="6" transform="rotate(-135 87.6816 82.0244)" fill="#787878"/>
</svg>
