<svg width="182" height="280" viewBox="0 0 182 280" fill="none" xmlns="http://www.w3.org/2000/svg">
<rect width="182" height="280" fill="white"/>
<path fill-rule="evenodd" clip-rule="evenodd" d="M32 0L150 0H182V32V218.5L171 225L182 231.5V248V280H150H32H0V248V231.5L11 225L0 218.5V32V0L32 0Z" fill="#FFD371"/>
<path d="M66.0039 43.0312V60H62.957L55.5039 49.2188H55.3633V60H51.8477V43.0312H54.9414L62.3477 53.8125H62.5117V43.0312H66.0039ZM74.5117 60.2578C70.668 60.2578 68.2773 57.6094 68.2773 53.6719C68.2773 49.7344 70.668 47.1094 74.5117 47.1094C78.3555 47.1094 80.7695 49.7344 80.7695 53.6719C80.7695 57.6094 78.3555 60.2578 74.5117 60.2578ZM74.5352 57.5625C76.3164 57.5625 77.2305 55.8984 77.2305 53.6719C77.2305 51.4219 76.3164 49.7578 74.5352 49.7578C72.7305 49.7578 71.793 51.4219 71.793 53.6719C71.793 55.8984 72.7305 57.5625 74.5352 57.5625ZM82.9492 60V47.2734H86.3008V49.4766H86.4414C86.9102 47.9062 88.082 47.0859 89.5117 47.0859C89.8633 47.0859 90.3086 47.1328 90.6133 47.2031V50.2969C90.2852 50.2031 89.6289 50.1094 89.1367 50.1094C87.5664 50.1094 86.418 51.2109 86.418 52.7578V60H82.9492ZM92.3008 60V47.2734H95.6055V49.5H95.7461C96.2852 48.0234 97.5742 47.1094 99.2852 47.1094C101.043 47.1094 102.332 48.0234 102.754 49.5H102.871C103.41 48.0469 104.84 47.1094 106.715 47.1094C109.082 47.1094 110.723 48.6797 110.723 51.4453V60H107.254V52.125C107.254 50.6719 106.41 49.9688 105.262 49.9688C103.949 49.9688 103.199 50.8828 103.199 52.2188V60H99.8242V52.0312C99.8242 50.7656 99.0273 49.9688 97.8555 49.9688C96.6836 49.9688 95.7695 50.9062 95.7695 52.3594V60H92.3008ZM112.785 56.4375C112.785 53.6016 115.082 52.6641 117.52 52.5234C118.434 52.4648 120.145 52.3828 120.684 52.3594V51.3281C120.66 50.2734 119.934 49.6406 118.645 49.6406C117.473 49.6406 116.723 50.1797 116.535 51.0469H113.23C113.441 48.8438 115.363 47.1094 118.738 47.1094C121.504 47.1094 124.129 48.3516 124.129 51.4219V60H120.848V58.2422H120.754C120.121 59.4141 118.926 60.2344 117.027 60.2344C114.59 60.2344 112.785 58.9688 112.785 56.4375ZM116.113 56.3438C116.113 57.3281 116.91 57.8438 118.012 57.8438C119.582 57.8438 120.707 56.7891 120.684 55.4531V54.5156C120.156 54.5391 118.68 54.6211 118.082 54.6797C116.887 54.7969 116.113 55.3594 116.113 56.3438ZM130.246 43.0312V60H126.777V43.0312H130.246Z" fill="#F07167"/>
<line x1="10" y1="224.5" x2="172" y2="224.5" stroke="white" stroke-width="2" stroke-dasharray="4 4"/>
<rect x="8.5" y="8.5" width="165" height="205" stroke="#F07167" stroke-dasharray="2 2"/>
</svg>
