<svg width="318" height="400" viewBox="0 0 318 400" fill="none" xmlns="http://www.w3.org/2000/svg"><g filter="url(#filter0_d_120_1947)"><rect x="1" width="309" height="392" rx="24" fill="#FFD371"/><g filter="url(#filter1_biiii_120_1947)"><rect width="309" height="392" rx="24" fill="#B3D5AC" fill-opacity=".109"/></g><path d="M93.0098 276.578V319h-7.6172l-18.6328-26.953h-.3516V319h-8.7891v-42.422h7.7344l18.5156 26.953h.4102v-26.953h8.7305Zm21.2692 43.067c-9.609 0-15.5856-6.622-15.5856-16.465 0-9.844 5.9766-16.407 15.5856-16.407 9.61 0 15.645 6.563 15.645 16.407 0 9.843-6.035 16.465-15.645 16.465Zm.059-6.739c4.453 0 6.738-4.16 6.738-9.726 0-5.625-2.285-9.785-6.738-9.785-4.512 0-6.856 4.16-6.856 9.785 0 5.566 2.344 9.726 6.856 9.726ZM135.373 319v-31.816h8.379v5.507h.352c1.171-3.925 4.101-5.976 7.675-5.976.879 0 1.992.117 2.754.293v7.734c-.82-.234-2.461-.469-3.691-.469-3.926 0-6.797 2.754-6.797 6.622V319h-8.672Zm23.379 0v-31.816h8.262v5.566h.351c1.348-3.691 4.571-5.977 8.848-5.977 4.394 0 7.617 2.286 8.672 5.977h.293c1.347-3.633 4.922-5.977 9.609-5.977 5.918 0 10.02 3.926 10.02 10.84V319h-8.672v-19.688c0-3.632-2.11-5.39-4.981-5.39-3.281 0-5.156 2.285-5.156 5.625V319h-8.437v-19.922c0-3.164-1.993-5.156-4.922-5.156-2.93 0-5.215 2.344-5.215 5.976V319h-8.672Zm51.211-8.906c0-7.09 5.742-9.434 11.836-9.785 2.285-.147 6.562-.352 7.91-.411v-2.578c-.059-2.636-1.875-4.218-5.098-4.218-2.929 0-4.804 1.347-5.273 3.515h-8.262c.528-5.508 5.332-9.844 13.77-9.844 6.914 0 13.476 3.106 13.476 10.782V319h-8.203v-4.395h-.234c-1.582 2.93-4.571 4.981-9.317 4.981-6.093 0-10.605-3.164-10.605-9.492Zm8.32-.235c0 2.461 1.992 3.75 4.746 3.75 3.926 0 6.739-2.636 6.68-5.976v-2.344c-1.318.059-5.01.264-6.504.41-2.988.293-4.922 1.699-4.922 4.16Zm35.332-33.281V319h-8.672v-42.422h8.672Z" fill="#F07167"/><circle cx="155" cy="160" r="88" fill="#FFF58B"/><g filter="url(#filter2_dii_120_1947)"><circle cx="155" cy="160" r="88" fill="url(#paint0_linear_120_1947)"/></g><g filter="url(#filter3_f_120_1947)"><path d="M111 165c0 9.389-7.611 17-17 17-9.3888 0-17-7.611-17-17s7.6112-17 17-17c9.389 0 17 7.611 17 17Z" fill="#F06" fill-opacity=".3"/></g><g filter="url(#filter4_f_120_1947)"><path d="M232 163c0 9.389-7.611 17-17 17s-17-7.611-17-17 7.611-17 17-17 17 7.611 17 17Z" fill="#F06" fill-opacity=".3"/></g></g><g filter="url(#filter5_df_120_1947)"><circle cx="188" cy="144" r="7" fill="#424242"/><circle cx="188" cy="144" r="6.5" stroke="#424242"/></g><g filter="url(#filter6_df_120_1947)"><circle cx="121" cy="144" r="7" fill="#424242"/><circle cx="121" cy="144" r="6.5" stroke="#424242"/></g><g filter="url(#filter7_df_120_1947)"><path d="M120 174.5c2 18 22.5 23.5 36.5 24C177 198.5 192 185 192 174" stroke="#424242" stroke-width="8" stroke-linecap="round"/></g><defs><filter id="filter0_d_120_1947" x="0" y="0" width="318" height="400" filterUnits="userSpaceOnUse" color-interpolation-filters="sRGB"><feFlood flood-opacity="0" result="BackgroundImageFix"/><feColorMatrix in="SourceAlpha" values="0 0 0 0 0 0 0 0 0 0 0 0 0 0 0 0 0 0 127 0" result="hardAlpha"/><feOffset dx="4" dy="4"/><feGaussianBlur stdDeviation="2"/><feComposite in2="hardAlpha" operator="out"/><feColorMatrix values="0 0 0 0 0 0 0 0 0 0 0 0 0 0 0 0 0 0 0.25 0"/><feBlend in2="BackgroundImageFix" result="effect1_dropShadow_120_1947"/><feBlend in="SourceGraphic" in2="effect1_dropShadow_120_1947" result="shape"/></filter><filter id="filter1_biiii_120_1947" x="-71.502" y="-71.502" width="452.004" height="535.004" filterUnits="userSpaceOnUse" color-interpolation-filters="sRGB"><feFlood flood-opacity="0" result="BackgroundImageFix"/><feGaussianBlur in="BackgroundImageFix" stdDeviation="35.751"/><feComposite in2="SourceAlpha" operator="in" result="effect1_backgroundBlur_120_1947"/><feBlend in="SourceGraphic" in2="effect1_backgroundBlur_120_1947" result="shape"/><feColorMatrix in="SourceAlpha" values="0 0 0 0 0 0 0 0 0 0 0 0 0 0 0 0 0 0 127 0" result="hardAlpha"/><feOffset dx="-9.34667" dy="9.34667"/><feGaussianBlur stdDeviation="4.67333"/><feComposite in2="hardAlpha" operator="arithmetic" k2="-1" k3="1"/><feColorMatrix values="0 0 0 0 0.561569 0 0 0 0 0.668235 0 0 0 0 0.539608 0 0 0 0.418 0"/><feBlend in2="shape" result="effect2_innerShadow_120_1947"/><feColorMatrix in="SourceAlpha" values="0 0 0 0 0 0 0 0 0 0 0 0 0 0 0 0 0 0 127 0" result="hardAlpha"/><feOffset dx="-4.67333" dy="4.67333"/><feGaussianBlur stdDeviation="2.33667"/><feComposite in2="hardAlpha" operator="arithmetic" k2="-1" k3="1"/><feColorMatrix values="0 0 0 0 1 0 0 0 0 1 0 0 0 0 1 0 0 0 0.418 0"/><feBlend in2="effect2_innerShadow_120_1947" result="effect3_innerShadow_120_1947"/><feColorMatrix in="SourceAlpha" values="0 0 0 0 0 0 0 0 0 0 0 0 0 0 0 0 0 0 127 0" result="hardAlpha"/><feOffset dx="9.34667" dy="-9.34667"/><feGaussianBlur stdDeviation="4.67333"/><feComposite in2="hardAlpha" operator="arithmetic" k2="-1" k3="1"/><feColorMatrix values="0 0 0 0 1 0 0 0 0 1 0 0 0 0 1 0 0 0 0.418 0"/><feBlend in2="effect3_innerShadow_120_1947" result="effect4_innerShadow_120_1947"/><feColorMatrix in="SourceAlpha" values="0 0 0 0 0 0 0 0 0 0 0 0 0 0 0 0 0 0 127 0" result="hardAlpha"/><feOffset dx="4.67333" dy="-4.67333"/><feGaussianBlur stdDeviation="2.33667"/><feComposite in2="hardAlpha" operator="arithmetic" k2="-1" k3="1"/><feColorMatrix values="0 0 0 0 0.561569 0 0 0 0 0.668235 0 0 0 0 0.539608 0 0 0 0.418 0"/><feBlend in2="effect4_innerShadow_120_1947" result="effect5_innerShadow_120_1947"/></filter><filter id="filter2_dii_120_1947" x="20.0667" y="48.5333" width="269.867" height="269.867" filterUnits="userSpaceOnUse" color-interpolation-filters="sRGB"><feFlood flood-opacity="0" result="BackgroundImageFix"/><feColorMatrix in="SourceAlpha" values="0 0 0 0 0 0 0 0 0 0 0 0 0 0 0 0 0 0 127 0" result="hardAlpha"/><feOffset dy="23.4667"/><feGaussianBlur stdDeviation="23.4667"/><feColorMatrix values="0 0 0 0 0.2 0 0 0 0 0.192431 0 0 0 0 0.109167 0 0 0 0.25 0"/><feBlend in2="BackgroundImageFix" result="effect1_dropShadow_120_1947"/><feBlend in="SourceGraphic" in2="effect1_dropShadow_120_1947" result="shape"/><feColorMatrix in="SourceAlpha" values="0 0 0 0 0 0 0 0 0 0 0 0 0 0 0 0 0 0 127 0" result="hardAlpha"/><feOffset dy="7.82222"/><feGaussianBlur stdDeviation="3.91111"/><feComposite in2="hardAlpha" operator="arithmetic" k2="-1" k3="1"/><feColorMatrix values="0 0 0 0 1 0 0 0 0 1 0 0 0 0 0.633167 0 0 0 1 0"/><feBlend in2="shape" result="effect2_innerShadow_120_1947"/><feColorMatrix in="SourceAlpha" values="0 0 0 0 0 0 0 0 0 0 0 0 0 0 0 0 0 0 127 0" result="hardAlpha"/><feOffset dy="-7.82222"/><feGaussianBlur stdDeviation="3.91111"/><feComposite in2="hardAlpha" operator="arithmetic" k2="-1" k3="1"/><feColorMatrix values="0 0 0 0 0.8 0 0 0 0 0.769722 0 0 0 0 0.436667 0 0 0 1 0"/><feBlend in2="effect2_innerShadow_120_1947" result="effect3_innerShadow_120_1947"/></filter><filter id="filter3_f_120_1947" x="57" y="128" width="74" height="74" filterUnits="userSpaceOnUse" color-interpolation-filters="sRGB"><feFlood flood-opacity="0" result="BackgroundImageFix"/><feBlend in="SourceGraphic" in2="BackgroundImageFix" result="shape"/><feGaussianBlur stdDeviation="10" result="effect1_foregroundBlur_120_1947"/></filter><filter id="filter4_f_120_1947" x="178" y="126" width="74" height="74" filterUnits="userSpaceOnUse" color-interpolation-filters="sRGB"><feFlood flood-opacity="0" result="BackgroundImageFix"/><feBlend in="SourceGraphic" in2="BackgroundImageFix" result="shape"/><feGaussianBlur stdDeviation="10" result="effect1_foregroundBlur_120_1947"/></filter><filter id="filter5_df_120_1947" x="177" y="136.5" width="22" height="22.5" filterUnits="userSpaceOnUse" color-interpolation-filters="sRGB"><feFlood flood-opacity="0" result="BackgroundImageFix"/><feColorMatrix in="SourceAlpha" values="0 0 0 0 0 0 0 0 0 0 0 0 0 0 0 0 0 0 127 0" result="hardAlpha"/><feOffset dy="4"/><feGaussianBlur stdDeviation="2"/><feComposite in2="hardAlpha" operator="out"/><feColorMatrix values="0 0 0 0 0 0 0 0 0 0 0 0 0 0 0 0 0 0 0.25 0"/><feBlend in2="BackgroundImageFix" result="effect1_dropShadow_120_1947"/><feBlend in="SourceGraphic" in2="effect1_dropShadow_120_1947" result="shape"/><feGaussianBlur stdDeviation=".25" result="effect2_foregroundBlur_120_1947"/></filter><filter id="filter6_df_120_1947" x="110" y="136.5" width="22" height="22.5" filterUnits="userSpaceOnUse" color-interpolation-filters="sRGB"><feFlood flood-opacity="0" result="BackgroundImageFix"/><feColorMatrix in="SourceAlpha" values="0 0 0 0 0 0 0 0 0 0 0 0 0 0 0 0 0 0 127 0" result="hardAlpha"/><feOffset dy="4"/><feGaussianBlur stdDeviation="2"/><feComposite in2="hardAlpha" operator="out"/><feColorMatrix values="0 0 0 0 0 0 0 0 0 0 0 0 0 0 0 0 0 0 0.25 0"/><feBlend in2="BackgroundImageFix" result="effect1_dropShadow_120_1947"/><feBlend in="SourceGraphic" in2="effect1_dropShadow_120_1947" result="shape"/><feGaussianBlur stdDeviation=".25" result="effect2_foregroundBlur_120_1947"/></filter><filter id="filter7_df_120_1947" x="112" y="169.5" width="88" height="41" filterUnits="userSpaceOnUse" color-interpolation-filters="sRGB"><feFlood flood-opacity="0" result="BackgroundImageFix"/><feColorMatrix in="SourceAlpha" values="0 0 0 0 0 0 0 0 0 0 0 0 0 0 0 0 0 0 127 0" result="hardAlpha"/><feOffset dy="4"/><feGaussianBlur stdDeviation="2"/><feComposite in2="hardAlpha" operator="out"/><feColorMatrix values="0 0 0 0 0 0 0 0 0 0 0 0 0 0 0 0 0 0 0.25 0"/><feBlend in2="BackgroundImageFix" result="effect1_dropShadow_120_1947"/><feBlend in="SourceGraphic" in2="effect1_dropShadow_120_1947" result="shape"/><feGaussianBlur stdDeviation=".25" result="effect2_foregroundBlur_120_1947"/></filter><linearGradient id="paint0_linear_120_1947" x1="155" y1="72" x2="155" y2="248" gradientUnits="userSpaceOnUse"><stop stop-color="#FFFF9C"/><stop offset="1" stop-color="#D6CE75"/></linearGradient></defs></svg>