<svg width="803" height="964" viewBox="0 0 803 964" fill="none" xmlns="http://www.w3.org/2000/svg">
<g filter="url(#filter0_i_0_1)">
<path d="M521.563 141.855C527.703 145.275 531.143 149.765 534.743 155.625C535.203 156.365 535.673 157.105 536.153 157.865C537.143 159.435 538.123 161.005 539.103 162.575C540.613 164.995 542.143 167.405 543.683 169.815C546.683 174.525 549.653 179.255 552.613 183.995C553.063 184.705 553.513 185.425 553.973 186.155C565.333 204.245 565.333 204.245 563.963 211.435C562.483 215.355 560.923 217.175 557.933 220.065C549.213 229.225 543.903 240.515 543.303 253.245C543.853 270.965 552.723 286.515 565.183 298.625C576.383 308.435 588.673 311.975 603.333 311.255C608.273 310.705 612.753 308.915 617.353 307.095C621.863 305.585 624.923 305.215 629.293 307.245C637.573 313.495 642.243 325.235 647.103 334.215C648.803 337.335 650.513 340.445 652.233 343.555C653.483 345.855 654.742 348.145 655.992 350.435C656.582 351.515 657.183 352.595 657.793 353.705C668.633 373.665 668.633 373.665 666.023 383.145C661.483 395.445 648.753 401.245 638.103 407.535C634.803 409.485 631.513 411.465 628.233 413.435C624.883 415.455 621.523 417.465 618.173 419.475C613.883 422.035 609.593 424.615 605.303 427.185C596.003 432.775 596.003 432.775 592.013 435.155C585.493 439.055 578.983 442.995 572.493 446.945C560.193 454.425 547.873 461.845 535.473 469.145C529.423 472.695 523.413 476.305 517.413 479.925C515.493 481.075 513.573 482.225 511.653 483.375C500.523 489.395 500.523 489.395 490.613 496.995C488.753 497.925 486.883 498.855 485.013 499.775C480.373 502.155 475.953 504.915 471.493 507.625C469.263 508.965 467.033 510.315 464.803 511.655C464.223 512.015 463.643 512.365 463.043 512.725C458.743 515.325 454.433 517.915 450.113 520.495C437.723 527.915 425.343 535.365 413.013 542.885C405.133 547.695 397.213 552.445 389.293 557.185C383.793 560.485 378.303 563.795 372.833 567.125C372.263 567.475 371.693 567.825 371.103 568.185C370.533 568.535 369.953 568.885 369.363 569.245C357.813 576.285 346.193 583.215 334.493 590.025C327.043 594.375 319.633 598.785 312.353 603.415C306.183 607.315 299.893 610.995 293.603 614.685C288.233 617.845 282.893 621.035 277.583 624.295C238.543 648.205 238.543 648.205 226.613 646.995C217.903 644.655 212.073 636.715 207.633 629.305C206.703 627.645 205.783 625.985 204.863 624.315C204.113 622.965 204.113 622.965 203.353 621.595C202.303 619.695 201.253 617.805 200.213 615.905C198.613 612.985 196.983 610.075 195.353 607.165C181.963 583.115 181.963 583.115 181.303 575.315C182.963 571.135 185.473 568.625 188.543 565.395C195.283 557.595 198.493 547.185 198.613 536.995C197.093 516.355 188.933 500.005 173.703 486.275C164.223 478.945 151.383 476.295 139.633 477.365C137.093 477.735 134.553 478.125 132.013 478.535C126.353 479.315 121.703 479.545 116.933 475.995C111.153 468.505 106.653 460.545 102.363 452.125C101.223 449.905 100.083 447.685 98.9425 445.465C98.3825 444.365 97.8225 443.275 97.2425 442.155C95.3425 438.455 93.3925 434.785 91.4425 431.125C77.1325 404.205 77.1325 404.205 79.4925 395.935C84.6925 388.755 93.0425 384.345 100.613 379.995C102.563 378.865 104.503 377.735 106.443 376.605C107.453 376.015 108.453 375.435 109.493 374.825C114.833 371.705 120.133 368.505 125.433 365.315C132.913 360.815 140.413 356.335 147.953 351.915C154.623 348.005 161.283 344.065 167.933 340.125C168.513 339.775 169.103 339.435 169.703 339.075C177.923 334.205 186.133 329.305 194.323 324.375C201.443 320.095 208.593 315.865 215.753 311.645C221.593 308.205 227.413 304.735 233.223 301.235C237.733 298.525 242.263 295.845 246.803 293.185C252.853 289.645 258.863 286.055 264.863 282.435C273.313 277.355 281.803 272.355 290.303 267.375C290.933 267.005 291.563 266.635 292.213 266.255C296.353 263.835 300.483 261.415 304.613 258.995C315.353 252.715 326.043 246.355 336.703 239.945C348.393 232.925 360.133 225.975 371.873 219.025C377.213 215.875 382.543 212.715 387.863 209.565C388.443 209.225 389.013 208.885 389.613 208.535C396.473 204.465 403.323 200.385 410.153 196.275C416.193 192.645 422.253 189.065 428.323 185.495C434.593 181.795 440.853 178.085 447.103 174.365C453.923 170.305 460.733 166.265 467.553 162.225C469.623 160.995 471.683 159.775 473.733 158.555C477.043 156.585 480.363 154.625 483.673 152.675C484.913 151.945 486.143 151.215 487.373 150.485C509.403 137.395 509.403 137.395 521.563 141.855Z" fill="#D5D5D5"/>
</g>
<g filter="url(#filter1_i_0_1)">
<path d="M14.6165 30.875C21.2965 33.385 24.0565 39.095 27.6665 44.905C40.1465 64.745 55.6065 82.955 73.6165 97.995C74.0965 98.415 74.5765 98.825 75.0765 99.245C86.1665 108.675 98.1465 116.505 110.617 123.995C111.277 124.395 111.937 124.795 112.617 125.205C128.547 134.615 146.326 140.985 163.376 148.045C173.246 152.135 183.037 156.265 192.617 160.995C193.227 161.305 193.837 161.605 194.467 161.915C204.187 166.745 213.017 172.385 221.617 178.995C222.157 179.415 222.697 179.825 223.247 180.245C230.807 186.065 236.917 192.365 242.617 199.995C243.217 200.785 243.827 201.575 244.447 202.395C256.037 218.165 266.976 239.875 264.616 259.995C262.736 262.815 262.736 262.815 259.616 264.995C258.966 265.495 258.326 265.985 257.656 266.495C251.956 270.715 245.877 274.265 239.757 277.825C233.627 281.395 227.547 285.055 221.497 288.755C220.517 289.345 219.546 289.935 218.536 290.555C216.546 291.765 214.556 292.985 212.566 294.195C207.856 297.075 203.146 299.945 198.426 302.815C197.496 303.375 196.567 303.945 195.617 304.525C138.126 339.515 138.126 339.515 120.676 335.495C99.8965 330.355 79.8965 322.205 63.6165 307.995C62.6365 307.165 61.6665 306.335 60.6565 305.475C45.0865 291.915 45.0865 291.915 43.5565 282.565C43.6165 278.995 43.6165 278.995 45.6165 275.995C50.1965 274.725 54.0165 275.155 58.6565 275.925C60.0465 276.145 61.4265 276.365 62.8165 276.585C63.5365 276.705 64.2565 276.825 65.0065 276.945C77.2065 278.935 89.3465 280.525 101.676 281.375C102.876 281.455 104.067 281.545 105.297 281.635C109.457 281.905 109.457 281.905 113.617 281.995C113.947 281.665 114.277 281.345 114.617 280.995C114.067 280.935 113.517 280.875 112.947 280.805C87.9465 277.125 64.8465 264.975 45.6165 248.995C45.0565 248.555 44.4865 248.115 43.9065 247.665C26.5965 234.015 13.4365 210.745 10.6165 188.995C10.1565 183.535 10.8865 179.805 13.6165 174.995C15.9265 173.315 15.9265 173.315 18.6165 172.995C22.8165 175.505 26.4365 178.475 30.1165 181.685C53.1965 201.255 81.3365 210.995 111.617 210.995C111.057 210.765 110.487 210.535 109.907 210.305C91.9165 202.885 76.6665 194.515 61.4065 182.405C60.0965 181.375 58.7565 180.395 57.3865 179.445C56.8065 178.965 56.2165 178.495 55.6165 177.995C55.6165 177.345 55.6165 176.685 55.6165 175.995C55.0665 175.775 54.5165 175.545 53.9565 175.315C30.7265 162.245 13.0465 126.685 6.1665 102.125C1.1965 82.845 -4.4535 56.305 5.4865 37.705C9.8765 31.075 9.8765 31.075 14.6165 30.875Z" fill="#D5D5D5"/>
</g>
<g filter="url(#filter2_i_0_1)">
<path d="M635.118 501.5C638.478 504.14 641.758 506.86 645.048 509.59C651.798 515.15 658.878 520.17 666.098 525.11C667.988 526.41 669.848 527.73 671.718 529.05C687.758 540.29 705.498 548.86 723.828 555.65C725.988 556.45 728.128 557.29 730.258 558.14C748.638 565.28 768.178 567.88 787.728 569.42C788.888 569.52 790.058 569.62 791.258 569.73C792.298 569.8 793.328 569.88 794.398 569.96C797.428 570.56 798.898 571.38 801.118 573.5C802.638 577.49 802.118 580.11 800.558 583.94C792.978 599.27 775.118 607.93 759.558 613.31C734.318 621.17 706.948 622.05 681.118 616.5C679.728 616.23 678.348 615.96 676.958 615.69C651.648 610.51 629.178 599.14 608.118 584.5C606.308 583.29 604.498 582.08 602.678 580.88C601.498 580.08 600.308 579.29 599.118 578.5C599.578 579.42 599.578 579.42 600.048 580.36C602.117 583.5 603.255 584.637 603.617 585C604.617 586 604.617 586 605.117 586.5C606.117 588 606.117 588 607.808 590.12C610.438 593.79 613.238 596.52 616.798 599.27C617.238 599.68 617.117 599.92 617.738 600.5C618.504 601.215 618.238 601 619.117 602C620.238 603 619.658 602.75 620.238 603C623.068 604.57 624.658 606.75 626.998 609C639.968 621.06 655.438 630.86 672.238 636.65C674.408 637.63 675.648 638.62 677.118 640.5C677.118 643.44 677.118 643.44 676.118 646.5C661.968 659.71 637.928 659.1 619.898 658.62C600.218 657.75 581.268 649.37 565.118 638.5C564.148 637.85 563.178 637.21 562.178 636.54C554.908 631.47 548.518 625.59 542.118 619.5C541.468 618.91 540.828 618.31 540.158 617.7C534.408 612.26 529.838 605.81 525.118 599.5C524.228 598.31 524.228 598.31 523.318 597.11C522.928 596.58 522.528 596.05 522.118 595.5C526.718 619.67 537.788 640.79 558.398 655.08C559.028 655.49 559.658 655.89 560.308 656.31C563.118 658.5 563.118 658.5 564.368 661.5C564.118 664.5 564.118 664.5 561.928 667.31C557.198 671 552.998 670.79 547.118 670.5C544.348 670.1 541.648 669.49 538.928 668.81C538.188 668.63 537.448 668.45 536.678 668.26C510.648 661.64 489.088 646.02 470.118 627.5C469.548 626.96 468.988 626.42 468.398 625.86C464.238 621.8 460.628 617.55 457.178 612.88C456.668 612.18 456.148 611.48 455.618 610.76C428.098 573.19 428.098 573.19 430.238 555.5C432.538 550.29 437.498 547.44 442.238 544.69C443.578 543.91 444.908 543.13 446.238 542.34C446.998 541.9 447.758 541.46 448.538 541.01C453.218 538.27 457.878 535.5 462.548 532.73C464.308 531.68 466.078 530.64 467.848 529.59C479.148 522.9 490.418 516.15 501.658 509.36C505.468 507.06 509.288 504.78 513.118 502.5C514.188 501.86 515.258 501.23 516.358 500.57C519.488 498.71 522.628 496.86 525.758 495.01C527.018 494.27 528.268 493.52 529.528 492.78C568.628 469.56 598.918 474.55 635.118 501.5ZM596.118 575.5C597.118 577.5 597.118 577.5 597.118 577.5L596.118 575.5ZM520.118 591.5C521.118 593.5 521.118 593.5 521.118 593.5L520.118 591.5Z" fill="#D5D5D5"/>
</g>
<g filter="url(#filter3_i_0_1)">
<path d="M528.465 0.757378C611.166 5.59393 676.842 32.8766 675.157 61.6951C673.472 90.5137 605.063 109.956 522.362 105.119C439.66 100.283 373.984 72.999 375.669 44.1804C377.355 15.3619 445.764 -4.07917 528.465 0.757378ZM527.64 14.8856C461.479 11.0165 406.993 22.4337 405.943 40.3867C404.894 58.3395 457.677 76.0293 523.837 79.8986C589.998 83.7678 644.483 72.3512 645.534 54.3985C646.584 36.4455 593.801 18.7549 527.64 14.8856Z" fill="#D5D5D5"/>
</g>
<g filter="url(#filter4_i_0_1)">
<path d="M383.807 691C285.531 756.954 251.605 789.089 319.46 836.266C391.506 886.358 354.561 943.128 314.783 964C422.417 927.266 417.389 862.015 374.45 832.927C282.02 770.312 363.919 731.352 383.807 691Z" fill="#D5D5D5"/>
</g>
<defs>
<filter id="filter0_i_0_1" x="51.3262" y="120.174" width="616.131" height="527.225" filterUnits="userSpaceOnUse" color-interpolation-filters="sRGB">
<feFlood flood-opacity="0" result="BackgroundImageFix"/>
<feBlend mode="normal" in="SourceGraphic" in2="BackgroundImageFix" result="shape"/>
<feColorMatrix in="SourceAlpha" type="matrix" values="0 0 0 0 0 0 0 0 0 0 0 0 0 0 0 0 0 0 127 0" result="hardAlpha"/>
<feOffset dx="-27" dy="-19"/>
<feGaussianBlur stdDeviation="23.6"/>
<feComposite in2="hardAlpha" operator="arithmetic" k2="-1" k3="1"/>
<feColorMatrix type="matrix" values="0 0 0 0 0.722756 0 0 0 0 0.721598 0 0 0 0 0.721598 0 0 0 0.5 0"/>
<feBlend mode="normal" in2="shape" result="effect1_innerShadow_0_1"/>
</filter>
<filter id="filter1_i_0_1" x="-27" y="11.875" width="291.939" height="325.398" filterUnits="userSpaceOnUse" color-interpolation-filters="sRGB">
<feFlood flood-opacity="0" result="BackgroundImageFix"/>
<feBlend mode="normal" in="SourceGraphic" in2="BackgroundImageFix" result="shape"/>
<feColorMatrix in="SourceAlpha" type="matrix" values="0 0 0 0 0 0 0 0 0 0 0 0 0 0 0 0 0 0 127 0" result="hardAlpha"/>
<feOffset dx="-27" dy="-19"/>
<feGaussianBlur stdDeviation="23.6"/>
<feComposite in2="hardAlpha" operator="arithmetic" k2="-1" k3="1"/>
<feColorMatrix type="matrix" values="0 0 0 0 0.722756 0 0 0 0 0.721598 0 0 0 0 0.721598 0 0 0 0.5 0"/>
<feBlend mode="normal" in2="shape" result="effect1_innerShadow_0_1"/>
</filter>
<filter id="filter2_i_0_1" x="402.406" y="458.977" width="399.621" height="211.666" filterUnits="userSpaceOnUse" color-interpolation-filters="sRGB">
<feFlood flood-opacity="0" result="BackgroundImageFix"/>
<feBlend mode="normal" in="SourceGraphic" in2="BackgroundImageFix" result="shape"/>
<feColorMatrix in="SourceAlpha" type="matrix" values="0 0 0 0 0 0 0 0 0 0 0 0 0 0 0 0 0 0 127 0" result="hardAlpha"/>
<feOffset dx="-27" dy="-19"/>
<feGaussianBlur stdDeviation="23.6"/>
<feComposite in2="hardAlpha" operator="arithmetic" k2="-1" k3="1"/>
<feColorMatrix type="matrix" values="0 0 0 0 0.722756 0 0 0 0 0.721598 0 0 0 0 0.721598 0 0 0 0.5 0"/>
<feBlend mode="normal" in2="shape" result="effect1_innerShadow_0_1"/>
</filter>
<filter id="filter3_i_0_1" x="348.637" y="-18.9807" width="326.553" height="124.838" filterUnits="userSpaceOnUse" color-interpolation-filters="sRGB">
<feFlood flood-opacity="0" result="BackgroundImageFix"/>
<feBlend mode="normal" in="SourceGraphic" in2="BackgroundImageFix" result="shape"/>
<feColorMatrix in="SourceAlpha" type="matrix" values="0 0 0 0 0 0 0 0 0 0 0 0 0 0 0 0 0 0 127 0" result="hardAlpha"/>
<feOffset dx="-27" dy="-19"/>
<feGaussianBlur stdDeviation="23.6"/>
<feComposite in2="hardAlpha" operator="arithmetic" k2="-1" k3="1"/>
<feColorMatrix type="matrix" values="0 0 0 0 0.722756 0 0 0 0 0.721598 0 0 0 0 0.721598 0 0 0 0.5 0"/>
<feBlend mode="normal" in2="shape" result="effect1_innerShadow_0_1"/>
</filter>
<filter id="filter4_i_0_1" x="275" y="682" width="128" height="282" filterUnits="userSpaceOnUse" color-interpolation-filters="sRGB">
<feFlood flood-opacity="0" result="BackgroundImageFix"/>
<feBlend mode="normal" in="SourceGraphic" in2="BackgroundImageFix" result="shape"/>
<feColorMatrix in="SourceAlpha" type="matrix" values="0 0 0 0 0 0 0 0 0 0 0 0 0 0 0 0 0 0 127 0" result="hardAlpha"/>
<feOffset dx="-14" dy="-11"/>
<feGaussianBlur stdDeviation="4.5"/>
<feComposite in2="hardAlpha" operator="arithmetic" k2="-1" k3="1"/>
<feColorMatrix type="matrix" values="0 0 0 0 0.721569 0 0 0 0 0.721569 0 0 0 0 0.721569 0 0 0 0.25 0"/>
<feBlend mode="normal" in2="shape" result="effect1_innerShadow_0_1"/>
</filter>
</defs>
</svg>
