<svg width="20" height="20" viewBox="0 0 20 20" fill="none" xmlns="http://www.w3.org/2000/svg">
<path d="M9.99967 3.33337C10.8837 3.33337 11.7316 3.68456 12.3567 4.30968C12.9818 4.93481 13.333 5.78265 13.333 6.66671C13.333 7.55076 12.9818 8.39861 12.3567 9.02373C11.7316 9.64885 10.8837 10 9.99967 10C9.11562 10 8.26777 9.64885 7.64265 9.02373C7.01753 8.39861 6.66634 7.55076 6.66634 6.66671C6.66634 5.78265 7.01753 4.93481 7.64265 4.30968C8.26777 3.68456 9.11562 3.33337 9.99967 3.33337ZM9.99967 11.6667C13.683 11.6667 16.6663 13.1584 16.6663 15V16.6667H3.33301V15C3.33301 13.1584 6.31634 11.6667 9.99967 11.6667Z" fill="#424242"/>
</svg>
